<mxfile host="app.diagrams.net" agent="Mozilla/5.0 (Windows NT 10.0; Win64; x64) AppleWebKit/537.36 (KHTML, like Gecko) Chrome/131.0.0.0 Safari/537.36 Edg/131.0.0.0" version="24.8.6">
  <diagram name="Page-1" id="eVvW2JaD4IPm_MehrP5j">
    <mxGraphModel dx="1290" dy="2047" grid="1" gridSize="10" guides="1" tooltips="1" connect="1" arrows="1" fold="1" page="1" pageScale="1" pageWidth="850" pageHeight="1100" math="0" shadow="0">
      <root>
        <mxCell id="0" />
        <mxCell id="1" parent="0" />
        <mxCell id="UcOkbDM3o_6liZAEe9FU-47" style="edgeStyle=orthogonalEdgeStyle;rounded=0;orthogonalLoop=1;jettySize=auto;html=1;exitX=0.5;exitY=1;exitDx=0;exitDy=0;entryX=0.5;entryY=0;entryDx=0;entryDy=0;" edge="1" parent="1" source="UcOkbDM3o_6liZAEe9FU-2" target="UcOkbDM3o_6liZAEe9FU-5">
          <mxGeometry relative="1" as="geometry" />
        </mxCell>
        <mxCell id="UcOkbDM3o_6liZAEe9FU-2" value="Start" style="rounded=1;whiteSpace=wrap;html=1;" vertex="1" parent="1">
          <mxGeometry x="135" y="-910" width="205" height="50" as="geometry" />
        </mxCell>
        <mxCell id="UcOkbDM3o_6liZAEe9FU-46" style="edgeStyle=orthogonalEdgeStyle;rounded=0;orthogonalLoop=1;jettySize=auto;html=1;exitX=0.5;exitY=1;exitDx=0;exitDy=0;entryX=0.5;entryY=0;entryDx=0;entryDy=0;" edge="1" parent="1" source="UcOkbDM3o_6liZAEe9FU-4" target="UcOkbDM3o_6liZAEe9FU-12">
          <mxGeometry relative="1" as="geometry" />
        </mxCell>
        <mxCell id="UcOkbDM3o_6liZAEe9FU-4" value="generaar random getal&lt;div&gt;initialiseer aantal pogingen op 1&lt;/div&gt;" style="rounded=0;whiteSpace=wrap;html=1;" vertex="1" parent="1">
          <mxGeometry x="130" y="-730" width="210" height="60" as="geometry" />
        </mxCell>
        <mxCell id="UcOkbDM3o_6liZAEe9FU-45" style="edgeStyle=orthogonalEdgeStyle;rounded=0;orthogonalLoop=1;jettySize=auto;html=1;exitX=0.5;exitY=1;exitDx=0;exitDy=0;entryX=0.5;entryY=0;entryDx=0;entryDy=0;" edge="1" parent="1" source="UcOkbDM3o_6liZAEe9FU-5" target="UcOkbDM3o_6liZAEe9FU-4">
          <mxGeometry relative="1" as="geometry" />
        </mxCell>
        <mxCell id="UcOkbDM3o_6liZAEe9FU-5" value="Vraag max_aantal_pogingen&lt;div&gt;&amp;nbsp;aan de gebruiker (minimum 1)&lt;/div&gt;" style="shape=parallelogram;perimeter=parallelogramPerimeter;whiteSpace=wrap;html=1;fixedSize=1;" vertex="1" parent="1">
          <mxGeometry x="130" y="-830" width="210" height="60" as="geometry" />
        </mxCell>
        <mxCell id="UcOkbDM3o_6liZAEe9FU-7" value="" style="edgeStyle=orthogonalEdgeStyle;rounded=0;orthogonalLoop=1;jettySize=auto;html=1;" edge="1" parent="1" source="UcOkbDM3o_6liZAEe9FU-8" target="UcOkbDM3o_6liZAEe9FU-10">
          <mxGeometry relative="1" as="geometry" />
        </mxCell>
        <mxCell id="UcOkbDM3o_6liZAEe9FU-36" value="Yes" style="edgeLabel;html=1;align=center;verticalAlign=middle;resizable=0;points=[];fontStyle=1;fontSize=14;" vertex="1" connectable="0" parent="UcOkbDM3o_6liZAEe9FU-7">
          <mxGeometry x="-0.22" y="1" relative="1" as="geometry">
            <mxPoint x="24" as="offset" />
          </mxGeometry>
        </mxCell>
        <mxCell id="UcOkbDM3o_6liZAEe9FU-57" style="edgeStyle=orthogonalEdgeStyle;rounded=0;orthogonalLoop=1;jettySize=auto;html=1;exitX=1;exitY=0.5;exitDx=0;exitDy=0;entryX=0;entryY=0.5;entryDx=0;entryDy=0;" edge="1" parent="1" source="UcOkbDM3o_6liZAEe9FU-8" target="UcOkbDM3o_6liZAEe9FU-25">
          <mxGeometry relative="1" as="geometry" />
        </mxCell>
        <mxCell id="UcOkbDM3o_6liZAEe9FU-8" value="als getal = randomgetal" style="rhombus;whiteSpace=wrap;html=1;" vertex="1" parent="1">
          <mxGeometry x="175" y="-380" width="120" height="80" as="geometry" />
        </mxCell>
        <mxCell id="UcOkbDM3o_6liZAEe9FU-9" value="" style="edgeStyle=orthogonalEdgeStyle;rounded=0;orthogonalLoop=1;jettySize=auto;html=1;" edge="1" parent="1" source="UcOkbDM3o_6liZAEe9FU-10" target="UcOkbDM3o_6liZAEe9FU-11">
          <mxGeometry relative="1" as="geometry" />
        </mxCell>
        <mxCell id="UcOkbDM3o_6liZAEe9FU-10" value="druk af: getal gevonden" style="shape=parallelogram;perimeter=parallelogramPerimeter;whiteSpace=wrap;html=1;fixedSize=1;" vertex="1" parent="1">
          <mxGeometry x="120" y="-230" width="230" height="60" as="geometry" />
        </mxCell>
        <mxCell id="UcOkbDM3o_6liZAEe9FU-11" value="einde" style="rounded=1;whiteSpace=wrap;html=1;" vertex="1" parent="1">
          <mxGeometry x="320" y="-130" width="120" height="40" as="geometry" />
        </mxCell>
        <mxCell id="UcOkbDM3o_6liZAEe9FU-22" style="edgeStyle=orthogonalEdgeStyle;rounded=0;orthogonalLoop=1;jettySize=auto;html=1;entryX=0.5;entryY=0;entryDx=0;entryDy=0;" edge="1" parent="1" source="UcOkbDM3o_6liZAEe9FU-12" target="UcOkbDM3o_6liZAEe9FU-8">
          <mxGeometry relative="1" as="geometry" />
        </mxCell>
        <mxCell id="UcOkbDM3o_6liZAEe9FU-12" value="vraag getal aan gebruiker" style="shape=parallelogram;perimeter=parallelogramPerimeter;whiteSpace=wrap;html=1;fixedSize=1;" vertex="1" parent="1">
          <mxGeometry x="130" y="-640" width="210" height="60" as="geometry" />
        </mxCell>
        <mxCell id="UcOkbDM3o_6liZAEe9FU-51" style="edgeStyle=orthogonalEdgeStyle;rounded=0;orthogonalLoop=1;jettySize=auto;html=1;exitX=0;exitY=0.5;exitDx=0;exitDy=0;entryX=0.5;entryY=1;entryDx=0;entryDy=0;" edge="1" parent="1" source="UcOkbDM3o_6liZAEe9FU-14" target="UcOkbDM3o_6liZAEe9FU-16">
          <mxGeometry relative="1" as="geometry" />
        </mxCell>
        <mxCell id="UcOkbDM3o_6liZAEe9FU-53" style="edgeStyle=orthogonalEdgeStyle;rounded=0;orthogonalLoop=1;jettySize=auto;html=1;exitX=0.5;exitY=0;exitDx=0;exitDy=0;entryX=0.5;entryY=1;entryDx=0;entryDy=0;" edge="1" parent="1" source="UcOkbDM3o_6liZAEe9FU-14" target="UcOkbDM3o_6liZAEe9FU-15">
          <mxGeometry relative="1" as="geometry">
            <Array as="points">
              <mxPoint x="700" y="-490" />
              <mxPoint x="700" y="-490" />
            </Array>
          </mxGeometry>
        </mxCell>
        <mxCell id="UcOkbDM3o_6liZAEe9FU-14" value="Is getal lager dan het random_getal?" style="rhombus;whiteSpace=wrap;html=1;" vertex="1" parent="1">
          <mxGeometry x="605" y="-480" width="190" height="70" as="geometry" />
        </mxCell>
        <mxCell id="UcOkbDM3o_6liZAEe9FU-58" style="edgeStyle=orthogonalEdgeStyle;rounded=0;orthogonalLoop=1;jettySize=auto;html=1;exitX=0.5;exitY=0;exitDx=0;exitDy=0;entryX=1;entryY=0.5;entryDx=0;entryDy=0;" edge="1" parent="1" source="UcOkbDM3o_6liZAEe9FU-15" target="UcOkbDM3o_6liZAEe9FU-12">
          <mxGeometry relative="1" as="geometry" />
        </mxCell>
        <mxCell id="UcOkbDM3o_6liZAEe9FU-15" value="Druk af &quot;getal is lager&quot;" style="shape=parallelogram;perimeter=parallelogramPerimeter;whiteSpace=wrap;html=1;fixedSize=1;" vertex="1" parent="1">
          <mxGeometry x="605" y="-590" width="190" height="60" as="geometry" />
        </mxCell>
        <mxCell id="UcOkbDM3o_6liZAEe9FU-33" style="edgeStyle=orthogonalEdgeStyle;rounded=0;orthogonalLoop=1;jettySize=auto;html=1;exitX=0.5;exitY=0;exitDx=0;exitDy=0;entryX=1;entryY=0.5;entryDx=0;entryDy=0;" edge="1" parent="1" source="UcOkbDM3o_6liZAEe9FU-16" target="UcOkbDM3o_6liZAEe9FU-12">
          <mxGeometry relative="1" as="geometry">
            <Array as="points">
              <mxPoint x="415" y="-610" />
            </Array>
          </mxGeometry>
        </mxCell>
        <mxCell id="UcOkbDM3o_6liZAEe9FU-16" value="Druk af &quot;getal is hoger&quot;" style="shape=parallelogram;perimeter=parallelogramPerimeter;whiteSpace=wrap;html=1;fixedSize=1;" vertex="1" parent="1">
          <mxGeometry x="340" y="-590" width="150" height="60" as="geometry" />
        </mxCell>
        <mxCell id="UcOkbDM3o_6liZAEe9FU-38" style="edgeStyle=orthogonalEdgeStyle;rounded=0;orthogonalLoop=1;jettySize=auto;html=1;exitX=0.5;exitY=1;exitDx=0;exitDy=0;entryX=0.5;entryY=0;entryDx=0;entryDy=0;" edge="1" parent="1" source="UcOkbDM3o_6liZAEe9FU-25" target="UcOkbDM3o_6liZAEe9FU-27">
          <mxGeometry relative="1" as="geometry" />
        </mxCell>
        <mxCell id="UcOkbDM3o_6liZAEe9FU-59" style="edgeStyle=orthogonalEdgeStyle;rounded=0;orthogonalLoop=1;jettySize=auto;html=1;exitX=1;exitY=0.5;exitDx=0;exitDy=0;entryX=0;entryY=0.5;entryDx=0;entryDy=0;" edge="1" parent="1" source="UcOkbDM3o_6liZAEe9FU-25" target="UcOkbDM3o_6liZAEe9FU-48">
          <mxGeometry relative="1" as="geometry" />
        </mxCell>
        <mxCell id="UcOkbDM3o_6liZAEe9FU-25" value="als aantal_pogingen = max_aantal_pogingen" style="rhombus;whiteSpace=wrap;html=1;" vertex="1" parent="1">
          <mxGeometry x="380" y="-380" width="190" height="80" as="geometry" />
        </mxCell>
        <mxCell id="UcOkbDM3o_6liZAEe9FU-39" style="edgeStyle=orthogonalEdgeStyle;rounded=0;orthogonalLoop=1;jettySize=auto;html=1;exitX=0.5;exitY=1;exitDx=0;exitDy=0;entryX=0.5;entryY=0;entryDx=0;entryDy=0;" edge="1" parent="1" source="UcOkbDM3o_6liZAEe9FU-27" target="UcOkbDM3o_6liZAEe9FU-11">
          <mxGeometry relative="1" as="geometry" />
        </mxCell>
        <mxCell id="UcOkbDM3o_6liZAEe9FU-27" value="druk af: max aantal pogingen bereikt" style="shape=parallelogram;perimeter=parallelogramPerimeter;whiteSpace=wrap;html=1;fixedSize=1;" vertex="1" parent="1">
          <mxGeometry x="360" y="-230" width="230" height="60" as="geometry" />
        </mxCell>
        <mxCell id="UcOkbDM3o_6liZAEe9FU-37" value="Yes" style="edgeLabel;html=1;align=center;verticalAlign=middle;resizable=0;points=[];fontStyle=1;fontSize=14;" vertex="1" connectable="0" parent="1">
          <mxGeometry x="490" y="-270" as="geometry">
            <mxPoint x="4" y="-2" as="offset" />
          </mxGeometry>
        </mxCell>
        <mxCell id="UcOkbDM3o_6liZAEe9FU-40" value="Yes" style="edgeLabel;html=1;align=center;verticalAlign=middle;resizable=0;points=[];fontStyle=1;fontSize=14;" vertex="1" connectable="0" parent="1">
          <mxGeometry x="670" y="-500" as="geometry">
            <mxPoint x="4" y="-2" as="offset" />
          </mxGeometry>
        </mxCell>
        <mxCell id="UcOkbDM3o_6liZAEe9FU-41" value="No" style="edgeLabel;html=1;align=center;verticalAlign=middle;resizable=0;points=[];fontStyle=1;fontSize=14;" vertex="1" connectable="0" parent="1">
          <mxGeometry x="580" y="-350" as="geometry">
            <mxPoint x="2" y="-8" as="offset" />
          </mxGeometry>
        </mxCell>
        <mxCell id="UcOkbDM3o_6liZAEe9FU-42" value="No" style="edgeLabel;html=1;align=center;verticalAlign=middle;resizable=0;points=[];fontStyle=1;fontSize=14;" vertex="1" connectable="0" parent="1">
          <mxGeometry x="460" y="-330" as="geometry">
            <mxPoint x="94" y="-132" as="offset" />
          </mxGeometry>
        </mxCell>
        <mxCell id="UcOkbDM3o_6liZAEe9FU-56" style="edgeStyle=orthogonalEdgeStyle;rounded=0;orthogonalLoop=1;jettySize=auto;html=1;exitX=0.5;exitY=0;exitDx=0;exitDy=0;entryX=0.5;entryY=1;entryDx=0;entryDy=0;" edge="1" parent="1" source="UcOkbDM3o_6liZAEe9FU-48" target="UcOkbDM3o_6liZAEe9FU-14">
          <mxGeometry relative="1" as="geometry" />
        </mxCell>
        <mxCell id="UcOkbDM3o_6liZAEe9FU-48" value="verhoog het aantal_pogingen met 1" style="rounded=0;whiteSpace=wrap;html=1;" vertex="1" parent="1">
          <mxGeometry x="630" y="-365" width="140" height="50" as="geometry" />
        </mxCell>
        <mxCell id="UcOkbDM3o_6liZAEe9FU-60" value="No" style="edgeLabel;html=1;align=center;verticalAlign=middle;resizable=0;points=[];fontStyle=1;fontSize=14;" vertex="1" connectable="0" parent="1">
          <mxGeometry x="590" y="-340" as="geometry">
            <mxPoint x="-272" y="-20" as="offset" />
          </mxGeometry>
        </mxCell>
      </root>
    </mxGraphModel>
  </diagram>
</mxfile>
